<svg xmlns="http://www.w3.org/2000/svg" viewBox="0 0 640 400" role="img">
<style>.sea{fill:#d9e2e4}.land{fill:#f6f2ea;stroke:#b9b1a3;stroke-width:1}.b{fill:none;stroke:#b9b1a3;stroke-width:.8;stroke-dasharray:3 3}.h{fill:#f25623;opacity:.18}.d{fill:#f25623;stroke:#fff;stroke-width:3}.t{}
@media (prefers-color-scheme:dark){.sea{fill:#14191b}.land{fill:#2a2824;stroke:#45413b}.b{stroke:#3a3733}.d{stroke:#121110}.h{fill:#ff6a3d}.t{fill:#f2efe9!important;stroke:#2a2824!important}}</style>
<rect class="sea" width="640" height="400"/><path class="land" d="M-20 -20L-3 -20L16 -20L29 -20L43 -20L53 -20L58 -20L64 -20L81 -20L92 -20L100 -20L113 -20L117 -20L127 -20L139 -20L143 -20L146 -20L136 -20L139 -20L145 -20L152 -20L158 -20L170 -20L181 -20L185 -20L190 -20L193 -20L197 -20L193 -20L180 -20L182 -20L198 -20L203 -20L207 -20L211 -20L230 -20L233 -20L229 -20L221 -20L213 -20L217 -20L230 -20L223 -20L238 -20L248 -20L255 -20L269 -20L281 -20L307 -20L322 -20L335 -20L344 -20L352 -20L355 -20L359 -20L368 -20L375 -20L384 -20L391 -20L394 -20L399 -20L404 -20L409 -20L411 -20L416 -20L410 -20L403 -20L397 -20L390 -20L387 -20L391 -20L398 -20L394 -20L384 -20L370 -20L325 -20L312 -20L315 -20L328 -20L340 -20L383 -20L389 -20L394 -20L398 -20L402 -20L396 -20L393 -20L417 -20L422 -20L413 -20L416 -20L413 -20L409 -20L406 -20L400 -20L396 -20L388 -20L385 -20L381 -20L378 -20L369 -20L354 -20L364 -20L377 -20L385 -20L396 -20L419 -20L428 -20L436 -20L445 -20L456 -20L476 -20L481 -20L487 -20L494 -20L500 -20L502 -20L507 -20L513 -20L508 -20L504 -20L495 -20L484 -20L465 -20L455 -20L448 -20L469 -20L493 -20L500 -20L505 -20L510 -20L519 -20L525 -20L532 -20L536 -20L543 -20L529 -20L533 -20L546 -20L549 -20L555 -20L560 -20L565 -20L568 -20L586 -20L604 -20L616 -20L626 -20L641 -20L650 -20L655 -20L658 -20L655 -20L649 -20L639 -20L623 -20L598 -20L587 -20L578 -20L572 -20L529 -20L511 -20L516 -20L510 -20L500 -20L489 -20L482 -20L478 -20L457 -20L431 -20L419 -20L405 -20L394 -20L387 -20L380 -20L367 -20L358 -20L335 -20L282 -20L290 -20L297 -20L311 -20L325 -20L355 -20L370 -20L378 -20L386 -20L381 -20L375 -20L368 -20L342 -20L330 -20L308 -20L286 -20L274 -20L261 -20L231 -20L220 -20L210 -20L198 -20L183 -20L179 -20L143 -20L130 -20L118 -20L115 -20L105 -20L102 -20L93 -20L77 -20L57 -20L50 -20L42 -20L30 -20L7 -20L12 -20L33 -20L25 -20L3 -20L-20 -20L-14 -20L11 -20L29 -20L53 -20L70 -20L73 -20L76 -20L86 -20L96 -20L103 -20L117 -20L139 -20L159 -20L170 -20L180 -20L185 -20L191 -20L208 -20L228 -20L247 -20L262 -20L271 -20L284 -20L324 -20L335 -20L349 -20L361 -20L366 -20L384 -20L402 -20L411 -20L425 -20L452 -20L466 -20L472 -20L488 -20L498 -20L514 -20L543 -20L571 -20L608 -20L651 -20L660 -20L642 -20L648 -20L660 -20L642 -20L628 -20L625 -20L620 -20L611 -20L607 -20L611 -20L608 -20L616 -20L602 -20L587 -20L579 -20L571 -20L568 -20L563 -20L557 -20L552 -20L548 -20L542 -20L537 -20L533 -20L529 -20L526 -20L521 -20L518 -20L514 -20L511 -20L508 -20L503 -20L499 -20L497 -20L491 -20L486 -20L483 -20L474 -20L466 -20L475 -20L469 -20L463 -20L454 -20L445 -20L439 -20L432 -20L422 -20L414 -20L410 -20L407 -20L404 -20L401 -20L399 -20L392 -20L390 -20L387 -20L384 -20L380 -20L378 -20L373 -20L369 -20L362 -20L352 -20L345 -20L347 -20L350 -20L337 -20L324 -20L314 -20L309 -20L306 -20L302 -20L298 -20L302 -20L306 -20L309 -20L312 -20L315 -20L312 -20L304 -20L298 -20L294 -20L289 -20L280 -20L284 -20L299 -20L305 -20L316 -20L312 -20L321 -20L324 -20L332 -20L342 -20L356 -20L367 -20L360 -20L353 -20L347 -20L350 -20L354 -20L358 -20L369 -20L372 -20L368 -20L362 -20L333 -20L327 -20L312 -20L309 -20L286 -20L277 -20L270 -20L267 -20L271 -20L261 -20L258 -20L254 -20L251 -20L248 -20L240 -20L219 -20L206 -20L194 -20L178 -20L169 -20L160 -20L129 -20L123 -20L115 -20L101 -20L68 -20L61 -20L52 -20L46 -20L41 -20L38 -20L34 -20L37 -20L41 -20L44 -20L39 -20L36 -20L40 -20L31 -20L28 -20L23 -20L20 -20L18 -20L14 -20L11 -20L29 -20L33 -20L37 -20L33 -20L29 -20L26 -20L23 -20L18 -20L12 -20L6 -20L-1 -20L-6 -20L-10 -20L-15 -20L-20 -20L-5 -20L6 -20L-1 -20L-8 -20L-5 -20L-0 -20L4 -20L8 -20L15 -20L21 -20L28 -20L41 -20L50 -20L60 -20L90 -20L140 -20L163 -20L177 -20L186 -20L196 -20L203 -20L206 -20L224 -20L234 -20L242 -20L262 -20L271 -20L260 -20L257 -20L249 -20L243 -20L211 -20L208 -20L204 -20L214 -20L218 -20L230 -20L227 -20L223 -20L226 -20L234 -20L228 -20L217 -20L210 -20L204 -20L191 -20L201 -20L211 -20L216 -20L220 -20L226 -20L232 -20L239 -20L259 -20L263 -20L266 -20L276 -20L279 -20L266 -20L262 -20L251 -20L245 -20L242 -20L238 -20L245 -20L262 -20L299 -20L322 -20L348 -20L354 -20L359 -20L363 -20L377 -20L383 -20L386 -20L382 -20L375 -20L351 -20L343 -20L347 -20L350 -20L357 -20L367 -20L374 -20L379 -20L383 -20L387 -20L391 -20L398 -20L403 -20L407 -20L431 -20L446 -20L465 -20L483 -20L501 -20L505 -20L511 -20L507 -20L515 -20L522 -20L545 -20L569 -20L606 -20L619 -20L660 -20L660 -13L660 9L660 32L660 51L660 60L660 73L660 68L660 59L660 53L660 44L660 48L660 45L660 41L660 17L660 9L660 -5L660 -12L660 -20L660 -14L660 -5L660 -0L660 10L660 21L660 31L660 50L660 58L660 70L660 78L660 83L660 94L660 105L660 149L660 175L660 188L660 201L660 236L660 239L660 246L660 263L660 286L660 299L660 313L660 328L660 335L660 355L660 351L660 342L660 339L660 342L660 352L660 347L660 339L660 329L660 307L660 309L660 306L660 300L660 292L660 272L660 253L660 233L660 212L660 187L660 180L660 175L660 168L660 158L660 151L660 137L660 118L660 108L660 118L660 157L660 163L660 169L660 172L660 190L660 228L660 237L660 251L660 260L660 267L660 281L660 287L660 291L660 307L660 314L660 330L660 351L660 363L660 380L660 398L660 412L660 420L657 420L652 420L627 420L623 420L596 420L585 420L571 420L568 420L571 420L575 420L585 420L636 420L647 420L660 420L651 420L636 420L615 420L607 420L596 420L579 420L560 420L552 420L549 420L541 420L522 420L513 420L500 420L493 420L487 420L478 420L458 420L452 420L471 420L484 420L490 420L495 420L499 420L495 420L485 420L472 420L456 420L447 420L443 420L439 420L431 420L421 420L428 420L434 420L439 420L445 420L448 420L432 420L421 420L412 420L416 420L424 420L436 420L448 420L454 420L458 420L476 420L493 420L501 420L497 420L450 420L439 420L431 420L413 420L404 420L399 420L387 420L375 420L334 420L320 420L310 420L301 420L297 420L288 420L285 420L288 420L284 420L277 420L259 420L247 420L226 420L211 420L192 420L186 420L169 420L166 420L175 420L179 420L193 420L205 420L212 420L208 420L218 420L222 420L250 420L260 420L269 420L265 420L251 420L209 420L189 420L177 420L162 420L159 420L156 420L139 420L117 420L112 420L117 420L124 420L131 420L139 420L144 420L147 420L162 420L190 420L202 420L217 420L234 420L237 420L241 420L228 420L216 420L181 420L174 420L164 420L160 420L146 420L141 420L135 420L122 420L115 420L112 420L106 420L88 420L78 420L74 420L63 420L88 420L97 420L105 420L111 420L106 420L101 420L96 420L85 420L68 420L57 420L40 420L32 420L25 420L21 420L13 420L8 420L11 420L17 420L22 420L30 420L47 420L54 420L58 420L62 420L72 420L78 420L89 420L95 420L105 420L121 420L130 420L134 420L139 420L142 420L146 420L151 420L142 420L147 420L153 420L156 420L149 420L156 420L159 420L155 420L137 420L106 420L103 420L107 420L134 420L141 420L146 420L151 420L123 420L101 420L85 420L73 420L68 420L62 420L54 420L49 420L45 420L42 420L35 420L21 420L17 420L27 420L39 420L42 420L38 420L23 420L16 420L5 420L-1 420L-9 420L-16 420L-20 420L-14 420L3 420L5 420L17 420L20 420L46 420L49 420L55 420L62 420L65 420L59 420L62 420L54 420L42 420L35 420L25 420L19 420L17 420L37 420L31 420L8 420L2 420L-2 420L-10 420L-19 420L-3 420L5 420L32 420L37 420L32 420L27 420L19 420L6 420L9 420L14 420L25 420L37 420L42 420L47 420L42 420L34 420L25 420L29 420L33 420L38 420L31 420L28 420L21 420L18 420L15 420L8 420L4 420L1 420L5 420L14 420L18 420L22 420L28 420L32 420L19 420L11 420L5 420L-6 420L-15 420L-0 420L12 420L45 420L73 420L85 420L75 420L69 420L66 420L57 420L54 420L52 420L46 420L38 420L26 420L14 420L4 420L-3 420L-14 420L-18 420L-11 420L-6 420L-1 420L6 420L13 420L20 420L17 420L13 420L6 420L-7 420L-1 420L15 420L20 420L16 420L20 420L16 420L7 420L-5 420L-7 420L-20 420L-5 420L2 420L8 420L20 420L25 420L30 420L37 420L40 420L48 420L43 420L36 420L33 420L28 420L31 420L26 420L3 420L0 420L15 420L26 420L36 420L39 420L43 420L49 420L55 420L59 420L49 420L39 420L46 420L52 420L57 420L61 420L64 420L67 420L61 420L53 420L71 420L85 420L94 420L100 420L118 420L122 420L119 420L111 420L98 420L79 420L83 420L86 420L95 420L110 420L138 420L143 420L131 420L117 420L105 420L95 420L98 420L111 420L117 420L108 420L122 420L127 420L137 420L130 420L136 420L145 420L140 420L135 420L141 420L147 420L154 420L164 420L158 420L148 420L139 420L135 420L131 420L135 420L138 420L145 420L160 420L170 420L174 420L170 420L164 420L155 420L150 420L144 420L133 420L127 420L121 420L115 420L102 420L96 420L73 420L65 420L55 420L59 420L64 420L57 420L49 420L45 420L36 420L40 420L51 420L55 420L61 420L76 420L82 420L96 420L77 420L73 420L77 420L73 420L61 420L66 420L61 420L66 420L85 420L94 420L99 420L102 420L105 420L116 420L119 420L127 420L135 420L143 420L151 420L148 420L153 412L158 406L162 395L168 385L181 371L185 353L195 323L198 303L201 290L200 278L206 263L212 250L214 243L228 227L231 213L226 204L225 190L222 171L231 164L234 158L246 127L245 115L248 100L241 82L240 42L235 11L228 -20L225 -20L228 -20L250 -20L255 -20L257 -20L254 -20L243 -20L240 -20L252 -20L258 -20L261 -20L268 -20L271 -20L276 -20L279 -20L288 -20L291 -20L299 -20L308 -20L313 -20L309 -20L314 -20L319 -20L326 -20L329 -20L320 -20L325 -20L333 -20L324 -20L318 -20L330 -20L335 -20L339 -20L345 -20L348 -20L352 -20L354 -20L360 -20L351 -20L355 -20L351 -20L344 -20L339 -20L332 -20L326 -20L299 -20L289 -20L279 -20L256 -20L250 -20L247 -20L239 -20L219 -20L211 -20L203 -20L191 -20L178 -20L170 -20L161 -20L134 -20L120 -20L95 -20L83 -20L56 -20L48 -20L21 -20L2 -20L-13 -20L-20 -20Z"/><path class="b" d="M105 420L109 420L114 420L118 420L128 420L139 420L146 420L149 420L151 420L159 420L171 420L176 420L173 420L166 420L158 420L161 420L166 420L172 420L177 420L192 420L197 420L202 420L208 420L204 420L212 420L222 420L225 420L223 420L220 420L214 420L211 420L216 420L226 420L231 420L227 420L221 420L226 420L241 420L254 420L247 420L239 420L234 420L216 420L197 420L194 420L204 420L218 420L229 420L237 420L246 420L254 420L262 420L265 420L270 420L266 420L256 420L215 420L220 420L224 420L227 420L224 420L217 420L222 420L214 420L208 420L215 420L220 420L209 420L196 420L192 420L188 420L191 420L188 420L191 420L196 420L190 420L195 420L198 420L201 420L205 420L212 420L220 420L213 420L208 420L211 420L205 420L210 420L214 420L216 420L219 420L224 420L217 420L220 420L225 420L229 420L225 420L229 420L235 420L239 420L241 420L245 420L249 420L254 420L260 420L267 420L276 420L288 420L292 420L295 420L292 420L286 420L284 420L276 420L270 420L272 420L270 420L267 420L270 420L274 420L270 420L268 420L270 420L275 420L278 420L285 420L292 420L296 420L301 420L305 420L315 420L320 420L329 420L333 420L332 414L329 406L330 399L328 394L323 392L321 386L323 383L328 381L334 376L339 353L341 347L343 339L343 335L346 329L350 319L355 311L359 305L362 296L363 291L367 289L372 288L377 287L379 284L379 279L379 270L377 254L376 234L377 221L381 208L384 201L383 196L382 190L376 186L370 189L365 188L360 181L358 174L359 164L364 158L365 150L363 147L357 142L352 124L353 108L348 104L346 92L340 88L338 79L337 70L337 66L343 64L346 57L344 53L340 49L334 50L330 45L323 28L318 18L320 4L321 -7L323 -16L324 -20L328 -20L331 -20L335 -20L338 -20L341 -20L338 -20L345 -20L351 -20L354 -20L359 -20L371 -20L375 -20L380 -20L374 -20L370 -20L373 -20L369 -20L365 -20L368 -20L375 -20L382 -20L389 -20L393 -20L396 -20L407 -20L410 -20L414 -20L422 -20L430 -20L436 -20L441 -20L447 -20L451 -20L455 -20L461 -20L470 -20L475 -20L480 -20L485 -20L489 -20L500 -20L505 -20L494 -20L486 -20L490 -20L500 -20L491 -20L489 -20L484 -20L489 -20L493 -20L498 -20L501 -20L498 -20L495 -20L490 -20L487 -20L492 -20L497 -20L504 -20L509 -20L513 -20L530 -20L544 -20L570 -20L588 -20L591 -20L599 -20L610 -20L617 -20L601 -20"/>
<circle class="h" cx="320.0" cy="200.0" r="26"/><circle class="d" cx="320.0" cy="200.0" r="9"/><text x="342" y="209" text-anchor="start" style="font:400 28px Georgia,'Times New Roman',serif;fill:#171717;paint-order:stroke;stroke:#f6f2ea;stroke-width:6px" class="t">Santiago</text></svg>