<svg xmlns="http://www.w3.org/2000/svg" viewBox="0 0 640 400" role="img">
<style>.sea{fill:#d9e2e4}.land{fill:#f6f2ea;stroke:#b9b1a3;stroke-width:1}.b{fill:none;stroke:#b9b1a3;stroke-width:.8;stroke-dasharray:3 3}.h{fill:#f25623;opacity:.18}.d{fill:#f25623;stroke:#fff;stroke-width:3}.t{}
@media (prefers-color-scheme:dark){.sea{fill:#14191b}.land{fill:#2a2824;stroke:#45413b}.b{stroke:#3a3733}.d{stroke:#121110}.h{fill:#ff6a3d}.t{fill:#f2efe9!important;stroke:#2a2824!important}}</style>
<rect class="sea" width="640" height="400"/><path class="land" d="M432 173L427 180L432 180L436 179L440 175L449 170L457 167L463 170L471 168L478 166L445 183L438 184L429 189L420 193L413 194L380 207L378 207L375 206L348 212L337 213L327 215L334 210L333 206L329 207L325 212L318 214L317 208L319 204L322 199L328 193L338 189L342 185L346 188L346 184L349 181L352 180L358 180L362 179L364 178L367 178L374 180L381 179L387 176L392 175L408 175L423 173L430 169L443 159L450 157L438 168L432 173ZM519 123L516 120L518 115L520 118L519 123ZM309 304L300 319L300 316L311 297L309 304ZM305 220L301 220L305 210L312 206L314 210L313 213L309 218L305 220ZM584 134L563 139L560 136L565 135L571 127L576 126L583 130L584 134ZM528 123L525 126L520 125L522 121L523 116L525 110L529 107L528 123ZM624 145L618 147L605 143L616 140L619 135L623 142L624 145ZM-20 -20L-7 -20L6 -20L24 -20L33 -20L39 -20L67 -20L79 -20L86 -20L97 -20L110 -20L118 -20L122 -20L126 -20L122 -20L118 -20L108 -20L100 -20L80 -20L55 -20L50 -20L40 -20L25 -20L15 -20L-11 -20L-19 -20L-2 -20L5 -20L11 -20L17 -20L28 -20L34 -20L28 -20L35 -20L47 -20L62 -20L65 -20L61 -20L55 -20L67 -20L64 -20L70 -20L50 -20L47 -20L57 -20L43 -20L47 -20L54 -20L43 -20L38 -20L32 -20L36 -20L42 -20L47 -20L26 -20L16 -20L7 -20L2 -20L21 -20L29 -20L34 -20L36 -20L43 -20L53 -20L39 -20L30 -20L24 -20L20 -20L14 -20L10 -20L6 -20L11 -20L24 -20L46 -20L64 -20L76 -20L101 -20L121 -20L182 -20L192 -20L182 -20L206 -20L212 -20L218 -20L235 -20L242 -20L250 -20L271 -20L267 -20L270 -20L287 -20L304 -20L316 -20L328 -20L337 -20L342 -20L347 -20L363 -20L372 -20L380 -20L391 -20L396 -20L404 -20L415 -20L419 -20L422 -20L412 -20L416 -20L421 -20L427 -20L432 -20L443 -20L454 -20L457 -20L461 -20L465 -20L468 -20L465 -20L452 -20L469 -20L474 -20L477 -20L481 -20L498 -20L501 -20L497 -20L489 -20L483 -20L486 -20L498 -20L491 -20L505 -20L515 -20L520 -20L533 -20L544 -20L568 -20L581 -20L593 -20L601 -20L608 -20L611 -20L615 -20L623 -20L629 -20L638 -20L644 -20L649 -20L656 -20L660 -20L655 -20L650 -20L644 -20L641 -20L644 -20L650 -20L647 -20L638 -20L625 -20L584 -20L573 -20L575 -20L587 -20L598 -20L637 -20L643 -20L647 -20L650 -20L654 -20L648 -20L646 -20L660 -20L652 -20L649 -20L641 -20L637 -20L632 -20L624 -20L610 -20L620 -20L632 -20L638 -20L649 -20L660 -20L656 -20L647 -20L640 -20L634 -20L622 -20L614 -20L593 -20L545 -20L552 -20L559 -20L572 -20L584 -20L611 -20L625 -20L633 -20L639 -20L635 -20L630 -20L623 -20L600 -20L588 -20L569 -20L549 -20L538 -20L526 -20L499 -20L489 -20L480 -20L469 -20L455 -20L451 -20L419 -20L407 -20L396 -20L393 -20L384 -20L381 -20L374 -20L359 -20L341 -20L335 -20L327 -20L316 -20L295 -20L300 -20L319 -20L312 -20L292 -20L266 -20L276 -20L299 -20L315 -20L337 -20L353 -20L356 -20L358 -20L367 -20L376 -20L383 -20L396 -20L415 -20L433 -20L443 -20L453 -20L457 -20L463 -20L478 -20L496 -20L513 -20L527 -20L535 -20L547 -20L583 -20L593 -20L606 -20L617 -20L621 -20L637 -20L654 -20L660 -20L657 -20L653 -20L651 -20L645 -20L640 -20L638 -20L635 -20L628 -20L624 -20L618 -20L609 -20L602 -20L607 -20L595 -20L583 -20L574 -20L570 -20L567 -20L563 -20L560 -11L562 -5L563 -0L567 5L570 5L573 5L577 7L576 10L572 10L565 15L559 17L556 22L552 29L543 39L547 42L560 45L566 49L576 68L573 73L581 78L583 92L590 96L600 99L612 95L622 89L622 85L616 74L614 69L609 66L608 68L604 65L607 62L610 62L614 64L624 76L627 91L627 101L626 104L623 104L618 104L592 109L586 114L573 119L573 111L572 101L569 100L549 117L541 118L534 123L532 120L531 108L535 97L526 104L523 100L522 96L517 92L519 102L514 109L513 127L507 134L488 139L476 138L465 139L451 143L443 141L434 144L407 145L401 143L393 150L381 154L351 170L344 175L336 184L331 189L326 190L323 194L320 197L323 188L326 181L329 166L328 155L325 150L322 147L325 158L326 172L325 181L317 196L314 200L310 203L308 205L305 207L302 211L299 219L301 226L315 229L319 227L321 232L322 239L321 247L319 255L317 265L316 280L313 293L313 289L314 273L310 278L306 299L300 311L294 318L288 317L290 323L288 327L287 333L283 338L280 337L275 340L273 347L270 351L259 372L249 378L249 367L251 357L245 353L240 351L233 351L226 344L217 338L204 323L204 319L204 312L208 301L211 293L217 289L232 285L236 279L238 274L230 282L219 285L213 289L208 294L205 300L199 308L199 313L200 317L200 324L204 332L212 344L214 363L220 375L229 390L237 394L237 400L234 409L229 413L235 412L238 414L241 420L238 420L235 420L231 420L226 420L221 420L217 420L198 420L196 420L190 420L185 420L182 420L179 420L173 420L169 420L176 420L183 420L189 420L193 420L188 420L179 420L183 420L179 420L176 420L173 420L176 420L172 420L169 420L166 420L159 420L152 420L148 420L148 412L153 410L159 412L168 412L163 410L154 401L152 396L147 395L144 400L142 401L145 390L149 390L155 387L153 380L149 378L143 381L143 377L144 371L149 371L154 373L157 364L158 360L151 366L150 353L156 340L162 335L169 335L177 334L172 332L167 331L171 326L174 325L177 321L170 322L171 313L167 315L163 316L161 319L162 325L160 329L157 332L151 334L151 330L148 337L147 340L143 332L141 336L140 339L137 342L137 347L136 349L124 345L131 356L135 359L136 365L132 369L126 365L128 372L130 377L128 382L129 388L128 393L127 398L130 419L133 420L136 420L129 420L124 420L119 418L118 414L116 411L117 418L137 420L140 420L137 420L133 420L123 420L109 420L102 420L96 420L93 420L86 420L80 420L74 420L82 407L88 401L90 394L90 383L88 394L85 400L79 404L72 412L70 419L74 420L84 420L88 420L99 420L119 420L126 420L132 420L141 420L148 420L144 420L142 420L135 420L130 420L108 420L105 420L96 420L87 420L83 420L98 420L103 420L113 420L121 420L126 420L131 420L144 420L140 420L147 420L137 420L133 420L127 420L110 420L121 420L130 420L137 420L143 420L146 420L142 420L137 420L133 420L129 420L122 420L114 420L91 420L73 420L77 420L92 420L98 420L110 420L117 420L120 420L129 420L137 420L149 420L157 420L168 420L170 420L176 420L186 420L201 420L188 420L182 420L176 420L172 420L168 420L173 420L178 420L181 420L177 420L171 420L164 420L156 420L151 420L147 420L150 420L143 420L139 420L135 420L131 420L125 420L116 420L113 420L121 420L129 420L140 420L148 420L152 420L162 420L168 420L179 420L182 420L185 420L170 420L160 420L154 420L147 420L138 420L134 420L131 420L127 420L124 420L121 420L111 420L100 420L89 420L94 420L123 420L126 420L129 420L125 420L122 420L109 420L102 420L87 420L94 420L100 420L111 420L133 420L140 420L134 420L128 420L121 420L114 420L107 420L100 420L88 420L82 420L73 420L69 420L65 420L61 420L53 420L43 420L39 420L35 420L27 420L22 420L18 420L15 420L-15 420L-20 420L10 420L29 420L39 420L63 420L72 420L82 420L92 420L97 420L100 420L103 420L99 420L102 420L108 420L111 420L106 420L102 420L98 420L107 420L115 420L147 420L157 420L166 420L175 420L186 420L195 420L198 420L192 420L195 420L199 420L203 420L195 420L190 420L193 420L201 420L206 420L210 420L222 420L234 420L249 420L255 420L285 420L294 420L288 420L282 420L289 420L293 420L297 420L303 420L308 420L315 420L326 420L335 420L344 420L371 420L416 420L437 420L450 420L458 420L467 420L473 420L476 420L492 420L501 420L509 420L527 420L535 420L525 420L522 420L515 420L510 420L481 420L478 420L474 420L483 420L487 420L498 420L495 420L491 420L494 420L501 420L496 420L486 420L480 420L474 420L462 420L471 420L480 420L486 420L489 420L495 420L500 420L506 420L524 420L528 420L531 420L540 420L543 420L531 420L527 420L517 420L512 420L507 420L512 420L527 420L560 420L581 420L605 420L610 420L615 420L619 420L631 420L637 420L629 420L608 420L601 420L604 420L607 420L613 420L622 420L629 420L633 420L637 420L640 420L644 420L650 420L655 420L658 420L656 420L651 420L640 420L629 420L593 420L580 420L571 420L562 420L559 420L550 420L548 420L551 420L547 420L540 420L524 420L513 420L494 420L481 420L463 420L458 420L442 420L440 420L448 420L452 420L465 420L475 420L482 420L478 420L487 420L490 420L516 420L525 420L533 420L529 420L517 420L479 420L461 420L450 420L436 420L433 420L431 420L416 420L395 420L391 420L395 420L401 420L408 420L416 420L420 420L423 420L436 420L462 420L472 420L486 420L502 420L505 420L508 420L496 420L485 420L454 420L447 420L438 420L435 420L422 420L417 420L412 420L400 420L393 420L391 420L386 420L369 420L360 420L357 420L346 420L369 420L377 420L384 420L389 420L386 420L381 420L377 420L366 420L351 420L341 420L326 420L318 420L312 420L308 420L301 420L297 420L304 420L309 420L316 420L332 420L338 420L342 420L346 420L355 420L360 420L370 420L375 420L385 420L399 420L407 420L411 420L415 420L418 420L422 420L426 420L418 420L423 420L428 420L430 420L424 420L431 420L434 420L430 420L413 420L385 420L382 420L386 420L411 420L417 420L422 420L427 420L400 420L381 420L366 420L356 420L351 420L346 420L338 420L334 420L330 420L327 420L321 420L308 420L304 420L314 420L325 420L327 420L324 420L310 420L303 420L294 420L288 420L281 420L275 420L267 420L257 420L245 420L239 420L236 420L256 420L267 420L270 420L266 420L260 420L265 420L270 420L276 420L292 420L294 420L305 420L307 420L331 420L334 420L339 420L345 420L348 420L342 420L345 420L338 420L327 420L321 420L312 420L307 420L304 420L323 420L317 420L296 420L291 420L287 420L280 420L272 420L286 420L294 420L318 420L322 420L318 420L314 420L306 420L295 420L297 420L302 420L312 420L323 420L327 420L332 420L327 420L320 420L312 420L316 420L319 420L324 420L317 420L315 420L309 420L305 420L302 420L296 420L293 420L290 420L293 420L302 420L306 420L309 420L315 420L319 420L306 420L299 420L293 420L283 420L275 420L289 420L300 420L330 420L355 420L366 420L357 420L352 420L349 420L341 420L336 420L331 420L324 420L313 420L302 420L293 420L287 420L276 420L273 420L270 420L275 420L279 420L284 420L289 420L295 420L301 420L308 420L305 420L301 420L295 420L283 420L289 420L303 420L307 420L303 420L308 420L303 420L295 420L285 420L282 420L267 420L258 420L243 420L239 420L245 420L242 420L232 420L218 420L207 420L202 420L210 420L214 420L211 420L206 420L195 420L190 420L194 420L210 420L215 420L225 420L238 420L249 420L244 420L238 420L261 420L271 420L284 420L291 420L296 420L307 420L312 420L316 420L322 420L325 420L332 420L328 420L322 420L319 420L315 420L318 420L313 420L292 420L289 420L303 420L312 420L322 420L325 420L328 420L333 420L339 420L342 420L334 420L324 420L331 420L337 420L341 420L345 420L350 420L345 420L338 420L353 420L366 420L375 420L380 420L397 420L400 420L397 420L390 420L378 420L361 420L364 420L368 420L376 420L389 420L415 420L419 420L408 420L395 420L384 420L375 420L378 420L390 420L395 420L387 420L400 420L404 420L413 420L407 420L412 420L421 420L417 420L411 420L417 420L423 420L429 420L438 420L433 420L424 420L415 420L412 420L408 420L411 420L414 420L421 420L434 420L444 420L447 420L444 420L438 420L430 420L425 420L420 420L410 420L404 420L399 420L394 420L382 420L377 420L356 420L348 420L339 420L343 420L348 420L341 420L334 420L330 420L322 420L325 420L336 420L339 420L344 420L358 420L364 420L376 420L359 420L356 420L359 420L356 420L345 420L349 420L345 420L349 420L367 420L374 420L379 420L382 420L385 420L395 420L397 420L405 420L412 420L419 420L426 420L424 420L428 420L433 420L436 420L442 420L454 420L457 420L467 420L471 420L476 420L482 420L496 420L490 420L498 420L502 420L512 420L508 420L503 420L496 420L493 420L496 420L516 420L520 420L510 420L507 420L517 420L523 420L526 420L532 420L540 420L543 420L551 420L553 420L561 420L569 420L573 420L569 420L574 420L579 420L585 420L588 420L580 420L584 420L591 420L584 420L578 420L588 420L593 420L597 420L603 420L608 420L613 420L616 420L607 420L611 420L607 420L601 420L597 420L591 420L585 420L560 420L551 420L542 420L521 420L516 420L514 420L506 420L488 420L481 420L473 420L462 420L450 420L443 420L435 420L411 420L398 420L375 420L365 420L340 420L333 420L308 420L291 420L277 420L236 420L229 420L223 420L213 420L203 420L188 420L173 420L167 420L157 420L154 420L146 420L139 420L143 420L148 420L154 420L151 420L135 420L130 420L126 420L119 420L110 420L105 420L92 420L89 420L80 420L75 420L68 420L44 420L36 420L9 420L2 420L-5 420L-11 420L-18 420L-10 420L-6 420L7 420L11 420L14 420L17 420L21 420L26 420L30 420L33 420L41 420L44 420L49 420L52 420L56 420L60 420L65 420L73 420L86 420L82 420L79 420L76 420L72 420L65 420L59 420L52 420L58 420L65 420L68 420L64 420L61 420L51 420L67 420L73 420L66 420L56 420L62 420L65 420L59 420L52 420L46 420L43 420L40 420L31 420L24 420L3 420L-13 420L-16 420L-12 420L-8 420L-3 420L2 420L5 420L12 420L20 420L29 420L34 420L27 420L15 420L12 420L9 420L4 420L-1 420L-3 420L-10 420L-14 420L-17 420L-20 420L-20 404L-20 381L-20 361L-20 335L-20 320L-20 310L-20 294L-20 286L-20 263L-20 247L-20 235L-20 223L-20 212L-20 201L-20 198L-20 202L-20 197L-20 195L-20 190L-20 175L-20 156L-20 134L-20 126L-20 110L-20 100L-20 93L-20 83L-20 73L-20 60L-20 42L-20 34L-20 14L-20 5L-20 -9L-20 -20Z"/><path class="b" d="M-20 -20L-20 -2L-20 9L-20 16L-20 23L-20 33L-20 39L-20 42L-20 47L-20 58L-20 74L-20 77L-20 89L-20 97L-20 104L-20 94L-20 83L-20 73L-20 62L-20 51L-20 47L-20 42L-20 35L-20 28L-20 18L-20 7L-20 -3L-20 -8L-20 -14L-20 -19L-0 -20L25 -20L47 -20L72 -20L86 -20L106 -20L115 -20L123 -20L132 -20L149 -20L154 -20L156 -20L166 -20L177 -20L181 -20L213 -20L230 -20L244 -20L254 -20L261 -20L266 -20L269 -20L287 -20L318 -20L350 -20L368 -20L381 -20L413 -20L444 -20L476 -20L507 -20L515 -20L522 -20L531 -20L536 -20L540 -20L547 -20L550 -20L552 -20L557 -20L562 -20L565 -20L569 -20L577 -20L587 -20L590 -20L597 -20L600 -20L604 -20L609 -20L617 -20L622 -20L632 -20L644 -20L650 -20L660 -20"/>
<circle class="h" cx="320.0" cy="200.0" r="26"/><circle class="d" cx="320.0" cy="200.0" r="9"/><text x="342" y="209" text-anchor="start" style="font:400 28px Georgia,'Times New Roman',serif;fill:#171717;paint-order:stroke;stroke:#f6f2ea;stroke-width:6px" class="t">New York</text></svg>